<svg xmlns="http://www.w3.org/2000/svg" viewBox="0 0 512 512" role="img" aria-label="健康生活">
  <rect width="512" height="512" rx="96" fill="#22413a"/>
  <path d="M110 342c0-42 34-76 76-76h140c42 0 76 34 76 76s-34 76-76 76H186c-42 0-76-34-76-76Z" fill="#fffaf0"/>
  <path d="M152 264c0-39 31-70 70-70h68c39 0 70 31 70 70v24H152v-24Z" fill="#f3b23c"/>
  <path d="M193 190c12-54 68-66 102-33 17 16 24 39 20 60H186c1-9 3-18 7-27Z" fill="#ff6f59"/>
  <path d="M180 348h152" stroke="#22413a" stroke-width="24" stroke-linecap="round"/>
  <circle cx="206" cy="318" r="18" fill="#22413a"/>
  <circle cx="306" cy="318" r="18" fill="#22413a"/>
  <path d="M230 376c18 14 42 14 60 0" fill="none" stroke="#22413a" stroke-width="18" stroke-linecap="round"/>
  <path d="M365 122l14 31 34 4-25 23 7 33-30-17-29 17 6-33-24-23 34-4 13-31Z" fill="#d7efe4"/>
</svg>
